<!--<svg viewBox="0 0 32 24"
     fill="none"
     xmlns="http://www.w3.org/2000/svg">
    <path fill-rule="evenodd"
          clip-rule="evenodd"
          d="M16.4417 3.22547C17.926 0.257901 22.1334 0.258058 23.5971 3.22547L30.5214 17.5443C31.7984 20.1758 30.4397 22.982 27.5 23H20H12.5C9.52647 23 7.58405 20.9408 8.91385 18.2812L16.4417 3.22547Z"
          fill="url(#paint0_linear)"/>
    <path fill-rule="evenodd"
          clip-rule="evenodd"
          d="M7 6.18115C8.4741 3.27296 11.5259 3.27294 13 6.18115L22 23H13H5C1.5 23 0.170198 19.6596 1.5 17C1.5 17 5.5259 9.12934 7 6.18115Z"
          fill="#F50057"/>
    <defs>
        <linearGradient id="paint0_linear"
                        x1="20.4524"
                        y1="3.55211"
                        x2="4.06899"
                        y2="13.1012"
                        gradientUnits="userSpaceOnUse">
            <stop offset="0.000316723"
                  stop-color="#F50057"/>
            <stop offset="0.999287"
                  stop-color="#4B001B"/>
        </linearGradient>
    </defs>
</svg>-->
<svg vviewBox="0 0 32 24"
     fill="none"
     xmlns="http://www.w3.org/2000/svg">
<g transform="translate(0.000000,978.000000) scale(0.100000,-0.100000)"
fill="#000000" stroke="none">
<path d="M2175 9329 c-160 -12 -359 -36 -530 -65 -185 -31 -477 -93 -488 -103
-5 -5 13 -12 40 -15 188 -28 690 -141 998 -226 547 -151 1210 -386 1620 -575
314 -145 658 -319 868 -440 l118 -68 187 91 c259 125 579 264 726 316 15 5 16
9 5 22 -21 26 -405 277 -548 359 -703 402 -1490 647 -2261 705 -156 12 -575
11 -735 -1z"/>
<path d="M874 7999 c27 -239 159 -495 371 -718 69 -73 246 -227 275 -240 8 -3
69 -43 135 -87 134 -90 296 -185 455 -264 58 -29 107 -56 110 -60 13 -20 538
-249 585 -255 30 -4 728 -271 810 -310 39 -18 131 -61 205 -95 265 -120 575
-291 874 -482 l140 -89 55 31 c133 74 503 252 689 330 111 47 201 87 202 90 0
10 -331 235 -518 353 -196 123 -541 325 -677 396 -186 96 -622 304 -770 366
-88 37 -187 80 -220 95 -112 53 -427 159 -1040 350 -239 75 -554 185 -640 225
-27 13 -111 49 -185 80 -74 31 -213 97 -310 145 -152 77 -201 97 -364 144
l-188 54 6 -59z"/>
<path d="M6075 7591 c-382 -210 -480 -267 -480 -278 0 -5 57 -55 126 -110 292
-236 661 -593 868 -843 57 -69 108 -129 115 -133 22 -17 626 260 626 287 0 19
-197 313 -315 471 -155 206 -327 406 -505 587 l-165 168 -270 -149z"/>
<path d="M7557 5980 c-84 -72 -247 -188 -359 -256 -54 -32 -98 -62 -98 -66 0
-3 24 -48 54 -100 56 -98 169 -312 178 -338 3 -8 8 -12 12 -8 12 11 306 720
306 738 0 23 -20 80 -28 80 -4 0 -33 -22 -65 -50z"/>
<path d="M2086 5599 c-51 -56 -95 -153 -107 -235 -51 -362 319 -883 921 -1296
52 -36 111 -75 130 -86 19 -11 94 -56 167 -100 73 -45 219 -132 325 -193 292
-170 593 -380 943 -658 l137 -109 77 49 c42 27 201 127 354 221 152 95 277
176 277 180 0 22 -816 614 -960 695 -19 11 -96 59 -170 105 -157 99 -437 264
-705 414 -163 91 -453 266 -545 327 -263 178 -757 611 -793 695 l-14 33 -37
-42z"/>
<path d="M6270 5274 c-423 -186 -747 -350 -738 -373 2 -4 71 -62 153 -128 205
-165 370 -307 567 -490 92 -85 184 -167 205 -182 53 -40 223 -216 223 -232 0
-8 3 -9 9 -4 13 15 341 710 341 724 0 22 -38 86 -96 161 -140 182 -503 581
-528 579 -6 0 -67 -25 -136 -55z"/>
<path d="M5570 3004 c-58 -42 -143 -108 -190 -147 -107 -90 -320 -297 -320
-311 0 -14 201 -168 298 -229 43 -26 111 -62 152 -79 66 -29 86 -32 166 -33
83 0 95 2 129 26 80 57 164 207 269 477 31 78 56 144 56 147 0 2 -6 2 -13 0
-18 -8 -139 53 -285 144 -71 45 -136 81 -144 81 -7 0 -60 -35 -118 -76z"/>
<path d="M4470 1850 c-208 -18 -442 -83 -639 -176 -63 -30 -116 -56 -118 -58
-4 -4 102 -305 176 -499 164 -425 341 -790 501 -1028 l61 -90 137 3 136 3 57
84 c158 233 345 669 540 1255 84 252 88 269 72 282 -49 36 -241 127 -334 158
-176 58 -395 83 -589 66z"/>
</g>
</svg>

